<?xml version="1.0" standalone="no"?>
<!DOCTYPE svg PUBLIC "-//W3C//DTD SVG 20010904//EN"
 "http://www.w3.org/TR/2001/REC-SVG-20010904/DTD/svg10.dtd">
<svg version="1.0" xmlns="http://www.w3.org/2000/svg"
 width="2937.000000pt" height="2373.000000pt" viewBox="0 0 2937.000000 2373.000000"
 preserveAspectRatio="xMidYMid meet">

<g transform="translate(0.000000,2373.000000) scale(0.100000,-0.100000)"
fill="#000000" stroke="none">
<path d="M10460 14964 c-201 -13 -443 -50 -605 -94 -99 -27 -140 -42 -225 -85
-235 -119 -412 -287 -790 -755 -41 -51 -80 -98 -85 -104 -6 -6 -49 -58 -96
-116 -47 -58 -95 -117 -106 -130 -81 -96 -153 -183 -183 -220 -19 -24 -52 -63
-72 -87 l-36 -42 -82 97 c-45 53 -94 111 -108 128 -15 18 -74 89 -132 159 -58
71 -143 174 -190 230 -47 56 -177 214 -290 351 -113 137 -225 268 -250 292
-174 168 -479 286 -885 343 -130 19 -478 16 -585 -3 -171 -32 -281 -82 -331
-151 -24 -33 -29 -50 -29 -98 0 -58 1 -59 73 -146 40 -48 88 -108 107 -133 18
-25 41 -52 49 -62 9 -9 39 -44 66 -78 28 -35 88 -109 135 -165 47 -56 132
-160 190 -230 58 -70 143 -174 190 -230 47 -56 101 -121 120 -145 19 -24 62
-76 95 -115 33 -39 76 -91 95 -115 19 -24 62 -76 95 -115 33 -39 76 -91 95
-115 19 -24 62 -76 95 -115 33 -40 76 -92 96 -116 20 -24 65 -78 99 -119 34
-41 77 -93 95 -115 18 -22 61 -74 95 -115 34 -41 71 -86 82 -100 12 -14 30
-35 41 -47 l19 -22 -88 -107 c-213 -256 -265 -318 -364 -439 -58 -70 -130
-157 -160 -194 -31 -36 -71 -86 -90 -111 -19 -25 -62 -77 -95 -116 -33 -39
-78 -92 -100 -119 -22 -27 -78 -95 -125 -151 -47 -56 -132 -160 -190 -230 -58
-70 -132 -159 -165 -198 -33 -39 -80 -96 -105 -126 -25 -30 -50 -59 -56 -65
-11 -10 -127 -150 -284 -345 -41 -51 -84 -103 -95 -115 -142 -164 -177 -232
-155 -300 20 -61 121 -128 233 -155 71 -17 287 -40 382 -40 84 0 383 23 450
34 17 3 62 10 100 16 432 70 622 171 930 492 65 68 120 130 124 139 3 9 48 64
99 121 51 58 114 132 140 166 26 33 103 129 172 213 69 83 136 166 150 183 14
18 72 88 130 155 l104 123 21 -25 c11 -13 67 -80 124 -148 57 -68 153 -184
215 -258 61 -74 129 -155 151 -181 22 -26 63 -76 90 -111 28 -35 74 -88 104
-119 30 -30 61 -67 70 -82 10 -15 75 -97 146 -183 168 -203 264 -274 482 -359
313 -121 667 -168 1033 -136 247 21 425 113 445 229 10 60 -23 121 -142 262
-54 64 -145 174 -203 244 -58 70 -145 175 -195 234 -49 59 -106 127 -125 151
-19 24 -62 76 -95 115 -33 39 -76 91 -95 115 -19 24 -62 76 -95 115 -33 39
-76 91 -95 115 -19 24 -73 90 -120 146 -47 57 -116 142 -155 190 -38 48 -108
132 -155 188 -47 56 -101 122 -120 146 -19 24 -62 76 -95 115 -33 39 -76 91
-95 115 -19 24 -59 72 -89 107 -63 74 -69 54 65 214 49 59 136 164 194 234 58
70 143 174 190 230 47 56 132 160 190 230 58 70 148 178 200 239 52 61 113
134 135 161 22 28 76 93 120 146 44 53 127 153 185 224 58 70 146 176 195 235
146 175 267 322 308 373 46 57 168 202 201 237 13 14 29 49 37 78 12 48 11 56
-9 97 -35 72 -124 118 -290 150 -75 15 -404 27 -522 19z"/>
</g>
</svg>
